HIERARCHY
ROOT Hips
{
	OFFSET 0.000000 100.481300 0.000000
	CHANNELS 6 Xposition Yposition Zposition Xrotation Yrotation Zrotation
	JOINT Spine
	{
		OFFSET -0.279200 12.230698 -2.892100
		CHANNELS 3 Xrotation Yrotation Zrotation
		JOINT Spine1
		{
			OFFSET -0.325700 14.269203 -3.374200
			CHANNELS 3 Xrotation Yrotation Zrotation
			JOINT Spine2
			{
				OFFSET -0.372300 16.307602 -0.352600
				CHANNELS 3 Xrotation Yrotation Zrotation
				JOINT Neck
				{
					OFFSET -0.418800 17.814194 8.416900
					CHANNELS 3 Xrotation Yrotation Zrotation
					JOINT Head
					{
						OFFSET 0.000000 7.031097 3.806800
						CHANNELS 3 Xrotation Yrotation Zrotation
						JOINT HeadTop_End
						{
							OFFSET 0.000000 24.646606 12.978600
							CHANNELS 3 Xrotation Yrotation Zrotation
							End Site
							{
								OFFSET 0.000000 27.854965 0.000000
							}
						}
					}
				}
				JOINT LeftShoulder
				{
					OFFSET 16.952999 14.495407 -7.737500
					CHANNELS 3 Xrotation Yrotation Zrotation
					JOINT LeftArm
					{
						OFFSET 9.308998 -2.777710 0.208600
						CHANNELS 3 Xrotation Yrotation Zrotation
						JOINT LeftForeArm
						{
							OFFSET 29.972298 0.000000 0.000000
							CHANNELS 3 Xrotation Yrotation Zrotation
							JOINT LeftHand
							{
								OFFSET 26.026505 0.000000 0.000000
								CHANNELS 3 Xrotation Yrotation Zrotation
								JOINT LeftHandThumb1
								{
									OFFSET 12.240501 -7.147949 9.207150
									CHANNELS 3 Xrotation Yrotation Zrotation
									JOINT LeftHandThumb2
									{
										OFFSET 4.138618 -2.389435 2.389433
										CHANNELS 3 Xrotation Yrotation Zrotation
										JOINT LeftHandThumb3
										{
											OFFSET 2.726913 -1.574387 1.574386
											CHANNELS 3 Xrotation Yrotation Zrotation
											JOINT LeftHandThumb4
											{
												OFFSET 3.941010 -2.275345 2.275342
												CHANNELS 3 Xrotation Yrotation Zrotation
												End Site
												{
													OFFSET -0.005798 5.087799 0.009903
												}
											}
										}
									}
								}
								JOINT LeftHandIndex1
								{
									OFFSET 24.424698 -1.985611 5.953459
									CHANNELS 3 Xrotation Yrotation Zrotation
									JOINT LeftHandIndex2
									{
										OFFSET 6.426697 0.000000 0.000000
										CHANNELS 3 Xrotation Yrotation Zrotation
										JOINT LeftHandIndex3
										{
											OFFSET 5.337898 0.000000 0.000000
											CHANNELS 3 Xrotation Yrotation Zrotation
											JOINT LeftHandIndex4
											{
												OFFSET 4.409401 0.000000 0.000000
												CHANNELS 3 Xrotation Yrotation Zrotation
												End Site
												{
													OFFSET 0.000000 4.409363 0.014373
												}
											}
										}
									}
								}
								JOINT LeftHandMiddle1
								{
									OFFSET 23.810104 0.000000 0.000000
									CHANNELS 3 Xrotation Yrotation Zrotation
									JOINT LeftHandMiddle2
									{
										OFFSET 7.176498 0.000000 0.000000
										CHANNELS 3 Xrotation Yrotation Zrotation
										JOINT LeftHandMiddle3
										{
											OFFSET 6.774902 0.000000 0.000000
											CHANNELS 3 Xrotation Yrotation Zrotation
											JOINT LeftHandMiddle4
											{
												OFFSET 5.403328 0.000000 0.000000
												CHANNELS 3 Xrotation Yrotation Zrotation
												End Site
												{
													OFFSET -0.027702 5.403244 0.017414
												}
											}
										}
									}
								}
								JOINT LeftHandRing1
								{
									OFFSET 22.908401 -0.839279 -6.020567
									CHANNELS 3 Xrotation Yrotation Zrotation
									JOINT LeftHandRing2
									{
										OFFSET 6.337502 0.000000 0.000000
										CHANNELS 3 Xrotation Yrotation Zrotation
										JOINT LeftHandRing3
										{
											OFFSET 5.779297 0.000000 0.000000
											CHANNELS 3 Xrotation Yrotation Zrotation
											JOINT LeftHandRing4
											{
												OFFSET 4.965698 0.000000 0.000000
												CHANNELS 3 Xrotation Yrotation Zrotation
												End Site
												{
													OFFSET 0.000000 4.965668 0.016186
												}
											}
										}
									}
								}
								JOINT LeftHandPinky1
								{
									OFFSET 20.037003 -1.530319 -10.950146
									CHANNELS 3 Xrotation Yrotation Zrotation
									JOINT LeftHandPinky2
									{
										OFFSET 5.254700 0.000000 0.000000
										CHANNELS 3 Xrotation Yrotation Zrotation
										JOINT LeftHandPinky3
										{
											OFFSET 4.810204 0.000000 0.000000
											CHANNELS 3 Xrotation Yrotation Zrotation
											JOINT LeftHandPinky4
											{
												OFFSET 3.647202 0.000000 0.000000
												CHANNELS 3 Xrotation Yrotation Zrotation
												End Site
												{
													OFFSET 0.000000 3.647186 0.011889
												}
											}
										}
									}
								}
							}
						}
					}
				}
				JOINT RightShoulder
				{
					OFFSET -15.141001 14.495407 -7.737500
					CHANNELS 3 Xrotation Yrotation Zrotation
					JOINT RightArm
					{
						OFFSET -9.308998 -2.777710 0.208500
						CHANNELS 3 Xrotation Yrotation Zrotation
						JOINT RightForeArm
						{
							OFFSET -29.972300 0.000000 0.000000
							CHANNELS 3 Xrotation Yrotation Zrotation
							JOINT RightHand
							{
								OFFSET -26.026505 0.000000 0.000000
								CHANNELS 3 Xrotation Yrotation Zrotation
								JOINT RightHandThumb1
								{
									OFFSET -12.240601 -7.148026 9.207092
									CHANNELS 3 Xrotation Yrotation Zrotation
									JOINT RightHandThumb2
									{
										OFFSET -4.138618 -2.389435 2.389433
										CHANNELS 3 Xrotation Yrotation Zrotation
										JOINT RightHandThumb3
										{
											OFFSET -2.726974 -1.574417 1.574421
											CHANNELS 3 Xrotation Yrotation Zrotation
											JOINT RightHandThumb4
											{
												OFFSET -3.941010 -2.275345 2.275343
												CHANNELS 3 Xrotation Yrotation Zrotation
												End Site
												{
													OFFSET 0.005814 5.087799 0.009927
												}
											}
										}
									}
								}
								JOINT RightHandIndex1
								{
									OFFSET -24.424698 -1.985657 5.953444
									CHANNELS 3 Xrotation Yrotation Zrotation
									JOINT RightHandIndex2
									{
										OFFSET -6.426697 0.000000 0.000000
										CHANNELS 3 Xrotation Yrotation Zrotation
										JOINT RightHandIndex3
										{
											OFFSET -5.337898 0.000000 0.000000
											CHANNELS 3 Xrotation Yrotation Zrotation
											JOINT RightHandIndex4
											{
												OFFSET -4.409401 0.000000 0.000000
												CHANNELS 3 Xrotation Yrotation Zrotation
												End Site
												{
													OFFSET 0.000000 4.409363 0.014408
												}
											}
										}
									}
								}
								JOINT RightHandMiddle1
								{
									OFFSET -23.810097 0.000000 0.000000
									CHANNELS 3 Xrotation Yrotation Zrotation
									JOINT RightHandMiddle2
									{
										OFFSET -7.176498 0.000000 0.000000
										CHANNELS 3 Xrotation Yrotation Zrotation
										JOINT RightHandMiddle3
										{
											OFFSET -6.774902 0.000000 0.000000
											CHANNELS 3 Xrotation Yrotation Zrotation
											JOINT RightHandMiddle4
											{
												OFFSET -5.403328 0.000000 0.000000
												CHANNELS 3 Xrotation Yrotation Zrotation
												End Site
												{
													OFFSET 0.027702 5.403244 0.017457
												}
											}
										}
									}
								}
								JOINT RightHandRing1
								{
									OFFSET -22.908302 -0.839325 -6.020576
									CHANNELS 3 Xrotation Yrotation Zrotation
									JOINT RightHandRing2
									{
										OFFSET -6.337502 0.000000 0.000000
										CHANNELS 3 Xrotation Yrotation Zrotation
										JOINT RightHandRing3
										{
											OFFSET -5.779297 0.000000 0.000000
											CHANNELS 3 Xrotation Yrotation Zrotation
											JOINT RightHandRing4
											{
												OFFSET -4.965698 0.000000 0.000000
												CHANNELS 3 Xrotation Yrotation Zrotation
												End Site
												{
													OFFSET 0.000000 4.965668 0.016226
												}
											}
										}
									}
								}
								JOINT RightHandPinky1
								{
									OFFSET -20.037003 -1.530334 -10.950259
									CHANNELS 3 Xrotation Yrotation Zrotation
									JOINT RightHandPinky2
									{
										OFFSET -5.254700 0.000000 0.000000
										CHANNELS 3 Xrotation Yrotation Zrotation
										JOINT RightHandPinky3
										{
											OFFSET -4.810204 0.000000 0.000000
											CHANNELS 3 Xrotation Yrotation Zrotation
											JOINT RightHandPinky4
											{
												OFFSET -3.647202 0.000000 0.000000
												CHANNELS 3 Xrotation Yrotation Zrotation
												End Site
												{
													OFFSET 0.000000 3.647186 0.011917
												}
											}
										}
									}
								}
							}
						}
					}
				}
			}
		}
	}
	JOINT LeftUpLeg
	{
		OFFSET 15.427100 -6.655098 0.678600
		CHANNELS 3 Xrotation Yrotation Zrotation
		JOINT LeftLeg
		{
			OFFSET 4.081073 -39.591068 13.024000
			CHANNELS 3 Xrotation Yrotation Zrotation
			JOINT LeftFoot
			{
				OFFSET -4.081074 -37.707932 -15.979700
				CHANNELS 3 Xrotation Yrotation Zrotation
				JOINT LeftToeBase
				{
					OFFSET 5.346399 -15.068900 20.645000
					CHANNELS 3 Xrotation Yrotation Zrotation
					JOINT LeftToe_End
					{
						OFFSET 2.754700 0.931300 11.300900
						CHANNELS 3 Xrotation Yrotation Zrotation
						End Site
						{
							OFFSET 0.000000 11.669021 0.000000
						}
					}
				}
			}
		}
	}
	JOINT RightUpLeg
	{
		OFFSET -15.569500 -6.655098 0.678600
		CHANNELS 3 Xrotation Yrotation Zrotation
		JOINT RightLeg
		{
			OFFSET -4.081825 -39.591045 13.023800
			CHANNELS 3 Xrotation Yrotation Zrotation
			JOINT RightFoot
			{
				OFFSET 4.081824 -37.707954 -15.979600
				CHANNELS 3 Xrotation Yrotation Zrotation
				JOINT RightToeBase
				{
					OFFSET -5.346400 -15.068900 20.645000
					CHANNELS 3 Xrotation Yrotation Zrotation
					JOINT RightToe_End
					{
						OFFSET -2.754700 0.931300 11.300900
						CHANNELS 3 Xrotation Yrotation Zrotation
						End Site
						{
							OFFSET 0.000000 11.669021 0.000000
						}
					}
				}
			}
		}
	}
}
MOTION
Frames: 5
Frame Time: 0.033333
-1.232702 91.592911 2.992490 -3.923853 -0.029588 -6.344731 3.455727 1.396003 3.350060 1.322829 0.088921 2.102725 1.294232 0.093352 2.106940 12.535507 -0.512929 4.698053 2.153271 -2.041517 9.723627 -0.000001 0.000000 0.000001 1.270349 -18.238535 -11.042758 0.645735 -17.765419 -68.458310 -0.000002 -2.465965 -0.000004 -37.512744 -5.518013 -3.311323 -1.835759 2.378489 5.839335 11.917696 25.470838 16.821824 -13.753124 3.456424 8.973269 0.000000 -0.000001 -0.000004 0.197906 -0.612679 -8.662916 0.268065 1.753504 -17.382008 0.057773 0.821599 -8.044398 0.000000 -0.000001 0.000000 -0.077105 2.848242 -17.956771 0.280553 1.792908 -17.785720 0.313759 1.893241 -18.818010 -0.000000 -0.000000 -0.000002 0.292113 4.143161 -24.834969 0.526029 2.428158 -24.443664 0.405009 2.142258 -21.409327 0.000000 0.000000 0.000001 0.627385 5.739753 -28.384926 0.279288 1.788952 -17.745089 0.250397 1.696067 -16.795066 -0.000001 0.000000 -0.000000 0.712648 15.488279 17.393915 18.556570 30.113085 49.944727 -0.000010 6.113599 0.000008 -20.089205 -0.882152 5.174931 -2.764412 -0.084211 -4.432892 12.985502 -29.919107 -15.341020 -14.891119 -3.202724 -11.759456 0.000000 0.000003 0.000003 0.381792 0.252018 7.358377 0.214694 -1.399134 17.446938 0.046295 -0.655732 8.076559 -0.000007 0.000000 -0.000003 0.067889 -3.066661 17.616654 0.226531 -1.436220 17.925111 0.252410 -1.513891 18.930916 0.000002 0.000000 -0.000003 -0.105165 -2.904944 23.613535 0.367168 -1.814212 22.881182 0.276731 -1.582981 19.830479 -0.000000 0.000000 -0.000001 1.176735 -5.869432 30.803310 0.379414 -1.842927 23.264794 0.350835 -1.775005 22.359519 -0.000001 0.000000 -0.000001 -22.262988 15.674415 16.741190 33.253357 -3.398715 9.932844 -10.308455 -3.477562 -10.887154 -5.402727 -0.000003 0.000001 -0.000000 0.000000 -0.000000 1.476086 -21.084913 8.316140 22.638792 0.595387 -6.941222 -16.911275 -7.603575 1.575212 -4.841625 0.000003 -0.000001 -0.000000 -0.000001 -0.000000 
-0.966063 91.949600 2.844042 -4.065702 -0.751449 -6.232085 3.359162 1.240344 3.336431 1.182642 -0.155466 2.068416 1.153379 -0.150569 2.070342 12.443201 -0.413278 4.471797 2.705681 -1.482182 9.309873 -0.000001 -0.000000 0.000000 1.290479 -18.656257 -11.015645 1.629585 -20.355512 -68.046641 -0.000003 -2.565030 0.000007 -36.247274 -4.016924 -4.693853 -1.289417 1.607356 5.017061 11.851717 25.423402 17.042707 -13.698350 3.460673 8.805387 -0.000001 -0.000001 -0.000003 0.118416 -0.805071 -7.958069 0.266152 1.747406 -17.319550 0.056884 0.815275 -7.982043 0.000000 0.000000 -0.000002 -0.085202 2.739862 -16.935842 0.279524 1.789685 -17.752674 0.312608 1.889866 -18.783211 0.000000 0.000000 0.000001 0.236592 3.993487 -24.005998 0.513617 2.400682 -24.148962 0.394138 2.114338 -21.116604 -0.000000 -0.000000 0.000001 0.647607 5.741956 -27.934026 0.276061 1.778844 -17.641487 0.247362 1.685981 -16.692200 0.000001 -0.000000 -0.000001 0.748281 15.149974 17.218605 17.774838 29.904573 50.924702 0.000005 6.189605 0.000019 -20.362995 -0.664290 5.145645 -2.909933 0.027454 -4.623828 13.127904 -29.962107 -14.932508 -14.798807 -3.097926 -11.711664 -0.000001 0.000000 -0.000003 0.370791 0.492063 6.847554 0.211817 -1.389933 17.328586 0.044945 -0.646223 7.958598 0.000002 0.000001 -0.000002 0.055068 -3.004113 17.066259 0.225492 -1.433008 17.883746 0.251329 -1.510730 18.889715 0.000002 -0.000003 0.000002 -0.144498 -2.783388 23.122890 0.367224 -1.814323 22.882822 0.276774 -1.583110 19.832363 0.000000 -0.000001 0.000001 1.136616 -5.844644 30.019965 0.379534 -1.843206 23.268653 0.350950 -1.775301 22.363419 -0.000001 -0.000001 -0.000000 -21.637448 16.274553 16.468083 32.386025 -3.245189 9.914915 -9.663361 -3.392696 -10.843797 -5.282850 -0.000008 0.000000 0.000000 0.000000 -0.000000 1.385176 -21.121038 8.169494 22.168873 1.250332 -7.242937 -16.095008 -7.612404 1.672792 -4.949484 -0.000003 0.000001 -0.000000 -0.000001 -0.000000 
-0.657321 92.370285 2.667126 -4.180103 -1.471682 -6.068883 3.283413 1.130373 3.329955 1.071711 -0.325988 2.050978 1.042142 -0.320604 2.051160 12.259812 -0.326817 4.174882 2.712171 -1.033716 8.853532 0.000001 0.000000 -0.000001 1.301530 -18.978847 -11.023119 2.087096 -22.306587 -68.035535 0.000000 -2.521980 0.000016 -34.847369 -2.310976 -5.894761 -0.482403 1.667135 4.489882 11.747671 25.345539 17.398389 -13.777798 3.576601 8.874727 0.000000 -0.000000 0.000001 0.125644 -0.782677 -8.051659 0.266767 1.749358 -17.339598 0.057167 0.817307 -8.002050 0.000000 -0.000000 0.000003 -0.061643 2.813373 -16.880469 0.278798 1.787417 -17.729365 0.311785 1.887442 -18.758204 -0.000001 -0.000000 -0.000003 0.253521 4.030161 -23.965452 0.507651 2.387343 -24.006170 0.388767 2.100379 -20.970428 0.000001 -0.000001 -0.000001 0.707473 5.800052 -27.928966 0.274574 1.774166 -17.593596 0.245976 1.681355 -16.645014 0.000001 -0.000000 0.000001 0.801982 14.901854 16.930577 17.327311 29.737230 51.776939 -0.000006 6.399759 -0.000011 -21.226952 -0.166958 5.504491 -2.875647 0.246631 -4.705453 13.263647 -30.001025 -14.544900 -14.723764 -3.003249 -11.688434 0.000000 0.000002 0.000002 0.369289 0.698215 6.326387 0.210947 -1.387162 17.292968 0.044553 -0.643370 7.923317 -0.000001 -0.000000 -0.000001 0.016952 -2.850652 16.462014 0.225185 -1.432078 17.871752 0.251026 -1.509841 18.878207 0.000001 -0.000000 0.000001 -0.178021 -2.665250 22.549658 0.364630 -1.808156 22.800701 0.274522 -1.576860 19.750508 0.000000 0.000001 -0.000004 1.096219 -5.815867 29.224897 0.375198 -1.833081 23.133233 0.346776 -1.765110 22.228075 -0.000000 -0.000001 0.000000 -20.721734 16.490783 15.763680 31.367394 -3.187120 9.903878 -8.987707 -2.583136 -10.493276 -5.190960 -0.000001 -0.000000 -0.000001 0.000000 -0.000000 1.270376 -21.147162 8.028108 21.606851 1.816113 -7.626805 -15.260564 -7.569409 1.651672 -5.062161 -0.000013 -0.000002 0.000000 0.000001 0.000000 
-0.317571 92.766495 2.456211 -4.260539 -2.261724 -5.892949 3.235621 1.084050 3.331862 1.000615 -0.395769 2.061398 0.971078 -0.390138 2.060765 11.932430 -0.253653 3.809293 2.019653 -0.670533 8.307027 -0.000001 0.000000 -0.000000 1.308951 -19.190543 -11.027007 1.991036 -23.431078 -68.478582 -0.000002 -2.446209 0.000007 -33.751578 -1.214870 -6.539682 -0.307940 2.496059 4.831676 11.703471 25.311397 17.551638 -13.892969 3.678670 9.066402 -0.000001 -0.000000 0.000002 0.243446 -0.589739 -8.509812 0.268003 1.753316 -17.380021 0.057745 0.821401 -8.042415 0.000001 0.000000 0.000004 -0.068977 2.847096 -17.616089 0.278816 1.787484 -17.730140 0.311775 1.887410 -18.757836 -0.000000 0.000001 0.000000 0.304142 4.156624 -24.408046 0.505411 2.382317 -23.952384 0.386598 2.094730 -20.911336 -0.000000 -0.000000 0.000002 0.683203 5.772375 -28.187875 0.274188 1.772946 -17.581079 0.245684 1.680380 -16.635146 0.000000 -0.000001 -0.000000 0.845496 14.749683 16.690069 17.472546 29.817519 51.997960 0.000001 6.701306 -0.000038 -22.227732 0.365659 6.172407 -2.766835 0.388422 -4.759534 13.363563 -30.028360 -14.260871 -14.672054 -2.934499 -11.678241 -0.000001 0.000002 0.000002 0.363457 0.912050 5.907317 0.210953 -1.387172 17.293154 0.044556 -0.643411 7.923844 0.000002 0.000000 -0.000000 -0.008592 -2.735781 15.941706 0.223336 -1.426346 17.797689 0.249084 -1.504161 18.804506 0.000001 -0.000000 -0.000001 -0.197970 -2.584988 22.105880 0.362623 -1.803394 22.737070 0.272786 -1.572010 19.687330 0.000001 0.000000 0.000001 1.055231 -5.780973 28.470593 0.371879 -1.825302 23.029400 0.343593 -1.757293 22.124364 -0.000000 -0.000001 -0.000000 -19.757821 16.518307 14.870048 30.389537 -3.181752 9.899122 -8.395534 -1.406290 -9.908594 -5.064721 -0.000003 -0.000001 0.000000 -0.000001 -0.000000 1.039512 -21.237210 7.830498 21.118795 2.459962 -7.993428 -14.445705 -7.472527 1.601298 -5.163076 0.000008 0.000001 -0.000000 -0.000000 -0.000000 
0.028785 93.090439 2.202946 -4.299801 -3.127423 -5.728196 3.210301 1.082116 3.327785 0.963202 -0.397367 2.095813 0.933865 -0.391086 2.094940 11.509551 -0.182344 3.432735 0.929245 -0.279642 7.631990 -0.000000 -0.000000 -0.000000 1.313933 -19.279698 -11.017505 1.569194 -23.834939 -69.217424 -0.000001 -2.460212 -0.000002 -33.302408 -1.049372 -6.577313 -0.855331 2.964316 5.476799 11.801210 25.385686 17.216115 -13.883847 3.611352 9.135110 0.000003 -0.000000 -0.000003 0.222091 -0.592475 -8.635859 0.269461 1.757949 -17.427515 0.058424 0.826210 -8.089878 -0.000000 -0.000001 0.000000 -0.113198 2.738141 -17.980024 0.277749 1.784151 -17.695917 0.310628 1.884034 -18.723060 0.000000 0.000002 -0.000001 0.297921 4.146540 -24.530452 0.503689 2.378437 -23.910885 0.385088 2.090764 -20.869841 -0.000000 -0.000002 -0.000000 0.619060 5.695869 -28.226935 0.274276 1.773214 -17.583858 0.245761 1.680648 -16.637854 -0.000000 -0.000000 -0.000001 0.864251 14.673840 16.585356 18.053001 30.112071 51.608267 -0.000008 6.997844 0.000018 -22.833961 0.651798 6.955271 -2.615298 0.498707 -4.780703 13.415169 -30.041904 -14.114872 -14.661940 -2.904678 -11.704064 0.000000 0.000000 -0.000001 0.356093 1.104960 5.591499 0.210865 -1.386884 17.289348 0.044522 -0.643129 7.920401 -0.000001 0.000000 -0.000000 -0.022779 -2.658597 15.472964 0.222751 -1.424504 17.773966 0.248468 -1.502350 18.780993 0.000000 0.000001 0.000003 -0.204068 -2.537332 21.665896 0.359086 -1.794928 22.624295 0.269705 -1.563382 19.574747 0.000001 -0.000001 -0.000001 1.011386 -5.727491 27.838857 0.365940 -1.811275 22.842101 0.337869 -1.743167 21.937149 0.000001 -0.000002 -0.000001 -18.943543 16.519359 14.313878 29.439563 -2.140715 9.854319 -8.000846 -1.334195 -9.765647 -4.915163 -0.000010 -0.000004 -0.000000 0.000000 0.000000 0.653788 -21.409580 7.557816 20.776349 3.227668 -8.275356 -13.674022 -7.322661 1.577568 -5.244859 -0.000006 0.000001 0.000000 0.000001 0.000000 
